<svg id="Layer_1" data-name="Layer 1" xmlns="http://www.w3.org/2000/svg" width="2.7in" height="2.7in" viewBox="0 0 196 196"><title>favicon-196</title><path d="M38.5,143.9c5.6,17.2,19.8,17.2,38.5.5,13.9-11.5,28.5,5.9,16.7,15.6C62.4,172.4,39.4,171.2,38.5,143.9Z" fill="#c3e8f5"/><path d="M40.9,148c8.1,21.5,43.3,21.4,59-7.8,11.2-15.8,32.7-1.2,26.9,13.4C99.6,188.9,42.7,194.4,40.9,148Z" fill="#34c3e8"/><path d="M32.7,119.5C27,227.6,188.9,219,147,98.7a25.8,25.8,0,0,0-3.7-7.2c-14.7-19.6-47-7.9-33,23.9a31,31,0,0,0,2.6,4.7c32.4,49.2-33.4,68.8-59.6,45.8C36.5,151.2,32.7,118.6,32.7,119.5Z" fill="#0db0dc"/><path d="M95.5,84.2V97.5a1.6,1.6,0,0,1-1.6,1.6h-17a1.6,1.6,0,0,0-1.6,1.5v17a1.6,1.6,0,0,1-1.5,1.6H60.5a1.6,1.6,0,0,1-1.5-1.6v-17a1.6,1.6,0,0,0-1.6-1.5h-17a1.6,1.6,0,0,1-1.6-1.6V84.2a1.6,1.6,0,0,1,1.6-1.5h17A1.6,1.6,0,0,0,59,81.1v-17a1.5,1.5,0,0,1,1.5-1.5H73.8a1.5,1.5,0,0,1,1.5,1.5v17a1.6,1.6,0,0,0,1.6,1.6h17A1.6,1.6,0,0,1,95.5,84.2Z" fill="#ed2c2a"/><path d="M67.2,187.9c89.2,23.5,100.6-86.2,35-123.1C71.5,47.7,59,19.4,69.1,3.3c3-4.9,23.7-6.8,53.9,25.4C212.9,123,134.6,224.3,67.2,187.9Z" fill="#159bd7"/></svg>