<svg xmlns="http://www.w3.org/2000/svg" width="2.7in" height="2.7in" viewBox="0 0 196 196"><path fill="#c3e8f5" d="M38.5 143.9c5.6 17.2 19.8 17.2 38.5.5 13.9-11.5 28.5 5.9 16.7 15.6-31.3 12.4-54.3 11.2-55.2-16.1z"/><path fill="#34c3e8" d="M40.9 148c8.1 21.5 43.3 21.4 59-7.8 11.2-15.8 32.7-1.2 26.9 13.4-27.2 35.3-84.1 40.8-85.9-5.6z"/><path fill="#0db0dc" d="M32.7 119.5C27 227.6 188.9 219 147 98.7a25.8 25.8 0 0 0-3.7-7.2c-14.7-19.6-47-7.9-33 23.9a31 31 0 0 0 2.6 4.7c32.4 49.2-33.4 68.8-59.6 45.8-16.8-14.7-20.6-47.3-20.6-46.4z"/><path fill="#ed2c2a" d="M95.5 84.2v13.3a1.6 1.6 0 0 1-1.6 1.6h-17a1.6 1.6 0 0 0-1.6 1.5v17a1.6 1.6 0 0 1-1.5 1.6H60.5a1.6 1.6 0 0 1-1.5-1.6v-17a1.6 1.6 0 0 0-1.6-1.5h-17a1.6 1.6 0 0 1-1.6-1.6V84.2a1.6 1.6 0 0 1 1.6-1.5h17a1.6 1.6 0 0 0 1.6-1.6v-17a1.5 1.5 0 0 1 1.5-1.5h13.3a1.5 1.5 0 0 1 1.5 1.5v17a1.6 1.6 0 0 0 1.6 1.6h17a1.6 1.6 0 0 1 1.6 1.5z"/><path fill="#159bd7" d="M67.2 187.9c89.2 23.5 100.6-86.2 35-123.1C71.5 47.7 59 19.4 69.1 3.3c3-4.9 23.7-6.8 53.9 25.4 89.9 94.3 11.6 195.6-55.8 159.2z"/></svg>