<svg xmlns="http://www.w3.org/2000/svg" width="38.4" height="38.4" viewBox="0 0 32 32"><path fill="#c3e8f5" d="M6.3 23.5c.9 2.8 3.2 2.8 6.3.1s4.6.9 2.7 2.5c-5.1 2.1-8.9 1.9-9-2.6z"/><path fill="#34c3e8" d="M6.6 24.2c1.4 3.5 7.1 3.5 9.7-1.3a2.5 2.5 0 0 1 4.4 2.2c-4.4 5.8-13.8 6.7-14.1-.9z"/><path fill="#0db0dc" d="M5.3 19.5C4.4 37.2 30.9 35.8 24 16.1a3.4 3.4 0 0 0-.6-1.2c-2.4-3.2-7.7-1.3-5.4 3.9.1.3.3.5.4.8 5.3 8.1-5.4 11.3-9.7 7.5-2.8-2.4-3.4-7.7-3.4-7.6z"/><path fill="#ed2c2a" d="M15.6 13.7v2.2c0 .1-.1.2-.3.2h-2.8c-.1 0-.2.2-.2.3v2.8c0 .1-.1.2-.3.2H9.9c-.2 0-.3-.1-.3-.2v-2.8a.3.3 0 0 0-.3-.3H6.6c-.2 0-.3-.1-.3-.2v-2.2c0-.1.1-.2.3-.2h2.7a.3.3 0 0 0 .3-.3v-2.8c0-.1.1-.2.3-.2H12c.2 0 .3.1.3.2v2.8c0 .2.1.3.2.3h2.8c.2 0 .3.1.3.2z"/><path fill="#159bd7" d="M10.9 30.7c14.7 3.9 16.5-14.1 5.8-20.2-5-2.8-7.1-7.4-5.4-10 .5-.9 3.9-1.2 8.8 4.1 14.7 15.5 1.9 32.1-9.2 26.1z"/></svg>