<svg xmlns="http://www.w3.org/2000/svg" width="67.2" height="67.2" viewBox="0 0 48 48"><path fill="#c3e8f5" d="M9.4 35.3c1.3 4.2 4.8 4.2 9.4.1s7 1.5 4.1 3.9c-7.7 3-13.3 2.7-13.5-4z"/><path fill="#34c3e8" d="M9.9 36.3c2 5.3 10.7 5.3 14.6-1.9 2.7-3.9 8-.3 6.6 3.3-6.7 8.7-20.7 10-21.2-1.4z"/><path fill="#0db0dc" d="M7.9 29.3c-1.4 26.6 38.5 24.5 28.2-5.1a7.7 7.7 0 0 0-1-1.8c-3.6-4.8-11.5-2-8.1 5.9a4.1 4.1 0 0 0 .7 1.1c7.9 12.2-8.2 17-14.7 11.3-4.2-3.6-5.1-11.6-5.1-11.4z"/><path fill="#ed2c2a" d="M23.4 20.6v3.3a.4.4 0 0 1-.4.4h-4.2c-.2 0-.4.1-.4.3v4.2a.4.4 0 0 1-.4.4h-3.2a.4.4 0 0 1-.4-.4v-4.2c0-.2-.2-.3-.4-.3H9.8a.4.4 0 0 1-.4-.4v-3.3a.4.4 0 0 1 .4-.4H14a.4.4 0 0 0 .4-.4v-4.1a.4.4 0 0 1 .4-.4H18a.4.4 0 0 1 .4.4v4.1a.4.4 0 0 0 .4.4H23a.4.4 0 0 1 .4.4z"/><path fill="#159bd7" d="M16.4 46.1c22 5.8 24.8-21.2 8.6-30.3C17.5 11.6 14.4 4.7 16.9.7c.7-1.2 5.8-1.7 13.2 6.2C52.3 30.2 33 55.1 16.4 46.1z"/></svg>