<svg xmlns="http://www.w3.org/2000/svg" width="19.2" height="19.2" viewBox="0 0 16 16"><defs><clipPath id="a"><path fill="none" d="M0 0h16v16H0z"/></clipPath></defs><g clip-path="url(#a)"><path fill="#c3e8f5" d="M-.8 11.5c1 2.9 3.3 2.9 6.4.1s4.6 1 2.7 2.6c-5.1 2-8.9 1.8-9.1-2.7z"/><path fill="#34c3e8" d="M-.4 12.2c1.4 3.5 7.1 3.5 9.7-1.3a2.5 2.5 0 0 1 4.4 2.2C9.3 18.9-.1 19.8-.4 12.2z"/><path fill="#0db0dc" d="M-1.7 7.5C-3.7 28 23.9 23.9 17 4.1a3.4 3.4 0 0 0-.6-1.2C14-.3 8.7 1.6 11 6.8a5.9 5.9 0 0 0 .4.8c5.4 8.1-5.4 11.3-9.7 7.5-2.8-2.4-3.4-7.7-3.4-7.6z"/><path fill="#ed2c2a" d="M9.4 4.9v1.8a.2.2 0 0 1-.2.2H6.9c-.2 0-.3.1-.3.2v2.4l-.2.2H4.6l-.2-.2V7.1l-.2-.2H1.9l-.2-.2V4.9a.2.2 0 0 1 .2-.2h2.3l.2-.2V2.2a.2.2 0 0 1 .2-.2h1.8a.2.2 0 0 1 .2.2v2.3c0 .1.1.2.3.2h2.3a.2.2 0 0 1 .2.2z"/><path fill="#159bd7" d="M3.9 18.8C18.6 22.6 20.5 4.6 9.7-1.4c-5-2.9-7.1-7.5-5.4-10.1.5-.9 3.9-1.2 8.8 4.1C27.9 8.1 15 24.7 3.9 18.8z"/></g></svg>