<svg xmlns="http://www.w3.org/2000/svg" id="Layer_1" viewBox="0 0 140 157.5" width="140" height="157.5"><style>.st0{fill:#fff}</style><path d="M0 0h140v157.5H0z" class="st0"/><path d="M57.7 117.6c-.7 0-1.4.5-1.6 1.1l-3.3 8.3-.3.9-.3-1-2.5-8.1v-.1c-.2-.7-.9-1.2-1.6-1.2H44c-.9.1-1.7.8-1.7 1.7 0 .2.1.6.2.9l.5 1.9-2 5.1-.3.9-.3-.9-2.5-8.1v-.1c-.2-.7-.9-1.2-1.6-1.2h-4.1c-.9.1-1.7.8-1.7 1.7 0 .2.1.6.2.9l6.1 18.3c.2.8.9 1.3 1.7 1.3.8 0 1.4-.5 1.6-1.2l4.3-10.9.3-1 .3 1 3.6 10.8c.2.8.9 1.3 1.7 1.3.8 0 1.4-.5 1.7-1.3l7.3-18.6c.1-.2.2-.5.2-.7-.1-.9-.8-1.7-1.8-1.7m30.7 0c-.7 0-1.4.5-1.6 1.1l-3.3 8.3-.3.9-.2-1-2.6-8.1v-.1c-.2-.7-.9-1.2-1.6-1.2h-4.1c-.9.1-1.6.8-1.6 1.7 0 .2.1.6.2.9l.5 1.7-2 5.1-.3.9-.2-.9-2.5-8.1v-.1c-.2-.7-.9-1.2-1.6-1.2h-4.1c-.9.1-1.7.8-1.7 1.7 0 .2.1.6.2.9l6.2 18.3c.2.8.9 1.3 1.7 1.3.8 0 1.4-.5 1.6-1.2l4.3-10.9.3-1 .3 1 3.6 10.8c.2.8.9 1.3 1.7 1.3.8 0 1.5-.5 1.7-1.3l7.3-18.6c.1-.2.2-.5.2-.7-.4-.7-1.2-1.5-2.1-1.5m19.9.1H93.9c-.8 0-1.5.7-1.5 1.5v19.1c0 .9.7 1.6 1.6 1.6h4.1c.9 0 1.6-.7 1.6-1.6v-8.9h5.9c.9 0 1.5-.7 1.5-1.6 0-.9-.7-1.6-1.6-1.6h-5.8v-5.1h8.7c.9 0 1.6-.8 1.6-1.7 0-1-.8-1.7-1.7-1.7M86 56.8c2.6 2.9 2.9 11.6 9.5 8.2 4-2.1 3.9-10.9-1.4-14-4.3-2.5-6.6.9-8.1 5-.2.3-.2.7 0 .8m-10.2-1.4c-2.7 2.3-4.6 8.5-9.7 6.4-4.1-2.1-4.5-10.2 2.6-13.9 4.9-2.3 7.4 2.2 7.4 7 0 .1-.2.4-.3.5m6.7 16c2.7-.3 2.1-2.8 0-3.4-1.7-.6-4.5-1-6.5-.9-3.5.1-3.4 2.7-1.6 3.2 1.4.5 2.3.6 3.4 2.2 1.1 2 .7-.7 4.7-1.1m12.9-45.1c3.4-5.7 9.3-4.6 12.3-1.7 3.3 3.1 3.8 6.6 2.5 9.1-1.7 3.3-6.1 7.4-8.9 3.5-1.3-1.7-3.9-3.8-5.4-4.4-2.2-1-2.6-3-.5-6.5"/><path d="M82.8 77.3c-1.5 3.9-9.2 2.6-9.4-1.2 0-.2.2-.1.3-.1 3.4.8 6.7 1.2 8.9 1.2 0-.1.2-.1.2.1m26.1-26c-.3-1-.8-.9-.8-.1.3 10.3-5.9 21.4-19.1 21.5-3.4 0-2.4 5.4-8.5 2.7-4.4-3-7 2.9-10.2-3.4-.7-1.8-1.7-2.6-3.1-2.9-13-3.3-17.2-21.2-5.7-35.7 2.3 1.4 3.1 1.6 5.5-.7 1.3-1.2 3.4-2.5 4.5-2.9 2.8-1.1 4.3-2.2 1.9-7.5-3.1-6.8-9.4-4.9-12.2-2.5-3.2 2.7-5.5 7-1.3 12.1-11.7 7.9-13.7 17.6-13.4 26 .3 9-2 8.2.8 17.3.3.8-.3.8-.7.5-12.2-7.8-18.8-31.6.2-44.7.4-.4.3-.9-1.3 0-16.4 8.7-18 25.5-15.2 36.9 1.3 5.5-.7 6.5 1.4 13.7 4.9 15 9.1 16.2 15 16.7 10.7 0 3.5-5.9 3.8-13.3 0-.4.5-.6.8.2 5.9 13.2 10.1 25.3 25.6 24.2 9-1.2 4-5.6 3.5-8.2-6.6-21.9 9.4-27.1 4.9-5.7-3 12.2 6.5 11 13.1 6.6 6.9-4.5 15.5-34.4 10.5-50.8"/><path d="M45.5 100.4c-1.9 0-3.4 1.6-3.4 3.4 0 1.9 1.5 3.5 3.4 3.5s3.4-1.5 3.4-3.5c0-1.8-1.5-3.4-3.4-3.4m2.9 3.4c0 1.6-1.3 2.9-2.9 2.9-1.6 0-2.9-1.3-2.9-2.9 0-1.6 1.3-2.9 2.9-2.9 1.6.1 2.9 1.4 2.9 2.9"/><path d="M46.5 104.4c-.1.4-.4.7-.9.7-.7 0-1.1-.6-1.1-1.3 0-.7.4-1.2 1.1-1.2.5 0 .8.3.9.7h.5c-.1-.8-.7-1.2-1.4-1.2-1 0-1.6.7-1.6 1.7s.6 1.7 1.6 1.7c.7 0 1.3-.5 1.4-1.2h-.5zm59.5 4.2c-1.9 0-3.4 1.5-3.4 3.4s1.5 3.4 3.4 3.4 3.4-1.5 3.4-3.4-1.5-3.4-3.4-3.4m2.8 3.5c0 1.6-1.3 2.9-2.9 2.9-1.6 0-2.9-1.3-2.9-2.9 0-1.6 1.3-2.9 2.9-2.9 1.6 0 2.9 1.3 2.9 2.9"/><path d="M105.4 111.9v-1h.7c.3 0 .7.1.7.5 0 .5-.4.5-.8.5h-.6zm0 .4h.6l.9 1.4h.5l-.9-1.4c.5-.1.8-.3.8-.9 0-.6-.4-.9-1.1-.9h-1.3v3.2h.5v-1.4z"/></svg>