<svg xmlns="http://www.w3.org/2000/svg"><symbol id="humanaid-icon" viewBox="0 0 68.3 68"><path d="M37.2 36.9h-.1a2.6 2.6 0 0 0-3.1.4l-1.2 1.5-1.3-1.4a2.4 2.4 0 0 0-3.2-.4 2.5 2.5 0 0 0-.4 3.8l4.9 4.8c-.2-.1 2.7-2.8 4.8-4.8a2.5 2.5 0 0 0-.4-3.9z"/><path d="M68.3 34.2a34.2 34.2 0 1 0-41 33.4V48.9a12.9 12.9 0 0 1-4.9-7.1 15 15 0 0 1-.4-3.7c0-5.6 0-11.2.1-16.8 0-1.4.8-2.4 2-2.4a2.2 2.2 0 0 1 2.1 2.3c.2 3.7.3 7.3.4 11 0 .2 0 .4.2.5s.4-.3.4-.5l-.3-12.8c0-.9-.1-1.8-.1-2.7a2.3 2.3 0 0 1 2.1-2.5 2.3 2.3 0 0 1 2.1 2.4l.3 14.1v.6c0 .2.2.3.3.4l.3-.4v-.5l-.3-16.1a2.2 2.2 0 0 1 2-2.4 2.3 2.3 0 0 1 2.2 2.4V31c0 .2-.1.3 0 .4l.3.3.3-.3V17.9a2.5 2.5 0 0 1 1.3-2.3 1.9 1.9 0 0 1 2.3.7 2.3 2.3 0 0 1 .6 1.6c-.1 3.1-.1 6.2-.1 9.2v9.3a.4.4 0 0 0 .1.3.5.5 0 0 0 .2.4c.1 0 .3-.1.3-.2l.5-1.1c.8-2.1 1.7-4.1 2.5-6.1a2.1 2.1 0 0 1 2.3-1.3 2.2 2.2 0 0 1 1.7 2 2.5 2.5 0 0 1-.1.9A58.7 58.7 0 0 1 43.6 43a18.6 18.6 0 0 1-2.9 4.4 15.7 15.7 0 0 1-2.1 1.7V68a34.1 34.1 0 0 0 29.7-33.8z"/></symbol><symbol id="coralreef-icon" viewBox="0 0 68.2 66.9"><path d="M34.1 0A34.1 34.1 0 0 0 22 66c2.6.5 6.8-.6 7.6-6a14.5 14.5 0 0 0 .4-2.9v-2.9a7.4 7.4 0 0 0-4-6.2 22.2 22.2 0 0 1-9.5-9.9l-.6-1.3a1.8 1.8 0 0 1 .5-2.3 1.7 1.7 0 0 1 2.6.7l.7 1.3a19.2 19.2 0 0 0 6.8 7.6l-2-3.4-.9-1.6c-3.8-6.2-4.4-14.5-1.7-21.8a1.9 1.9 0 0 1 2.1-1.2 1.8 1.8 0 0 1 1.2 2.4 23 23 0 0 0-.3 15.3 35.4 35.4 0 0 1 5.5-6.2 1.8 1.8 0 0 1 2.7.4 2 2 0 0 1-.5 2.4l-2.1 2.1a8.5 8.5 0 0 0-1.1 9.7c2.2 3.7 3.9 7.6 4 11.7h.1a8.5 8.5 0 0 0 1.4-1.7 11 11 0 0 0-1.1-13.9c-.1-.2-.3-.3-.5-.5a1.8 1.8 0 1 1 2.3-2.8 15.7 15.7 0 0 1 3.9 5.4c.3-1 .5-2 .8-3a23.4 23.4 0 0 0-.2-14.8 16 16 0 0 0-1-2.3 1.9 1.9 0 0 1 .6-2.4 1.7 1.7 0 0 1 2.6.7 47.1 47.1 0 0 1 2.7 8c2.7-4.4 5.8-7.8 8.4-9.3a1.8 1.8 0 0 1 2.4.4 1.7 1.7 0 0 1-.5 2.6c-4.2 2.4-10.1 11.1-12.3 21a47.8 47.8 0 0 1-1.7 5.9c3.4-2.1 7.2-5.8 7.8-10.4a1.8 1.8 0 0 1 1.9-1.6 1.8 1.8 0 0 1 1.7 2c-.8 5.7-5.1 10.4-9.4 13a19.1 19.1 0 0 0-5.9 5.4 9.5 9.5 0 0 0-1.6 4c-.1 4.2 3.9 8.4 8.8 7A34.1 34.1 0 0 0 34.1 0zm-4 9.7a1.5 1.5 0 0 1 1.7-1 1.4 1.4 0 0 1 1 1.7 1.3 1.3 0 0 1-1.7 1 1.4 1.4 0 0 1-1-1.7zm1 15.6a2.7 2.7 0 1 1 0-5.3 2.7 2.7 0 0 1 0 5.3zm6.2-8.5a2.1 2.1 0 0 1-2.5 1.5 2.1 2.1 0 0 1-1.4-2.5 2 2 0 0 1 2.4-1.4 2.1 2.1 0 0 1 1.5 2.4z"/></symbol><symbol id="wildlife-icon" viewBox="0 0 67.6 67.6"><path d="M33.8 0a33.8 33.8 0 1 0 33.8 33.8A33.8 33.8 0 0 0 33.8 0zm12.8 17.5c0 1.6-.1 3.1-.1 4.8a3.8 3.8 0 0 0-2.2-1.3 10.1 10.1 0 0 0 2.3-3.5zm-5.9 6.2a4.7 4.7 0 0 1 1.9-1.5 2.6 2.6 0 0 1 3.3 1.2 4.3 4.3 0 0 1 .7 2.5v.3a7.6 7.6 0 0 1-2.1 5.3 3.4 3.4 0 0 1-2 1.3 2.6 2.6 0 0 1-3-1.1 5.7 5.7 0 0 1-.7-2.2 8.1 8.1 0 0 1 1.9-5.8zm-7.1-9.3a24.2 24.2 0 0 0 1.3 4.6 5.3 5.3 0 0 0-2.5 0 22.2 22.2 0 0 0 1.2-4.6zm-2.8 7.7a4.2 4.2 0 0 1 1.1-1.6 2.7 2.7 0 0 1 3.8.1 6.4 6.4 0 0 1 1.5 2.8 6.8 6.8 0 0 1 .2 2 6.6 6.6 0 0 1-1 3.8 3.8 3.8 0 0 1-1 1.2 2.6 2.6 0 0 1-3.4-.1 5.1 5.1 0 0 1-1.5-2.1 8.1 8.1 0 0 1 .3-6.1zm-7.5-1.2a4.2 4.2 0 0 0-2.2 1.3c0-1.6-.1-3.2-.1-4.8a14.1 14.1 0 0 0 2.3 3.5zm-1.8 2.6a2.6 2.6 0 0 1 1.8-1.4 2.7 2.7 0 0 1 2.1.4 6 6 0 0 1 2.1 2.1 9.3 9.3 0 0 1 1.2 4.6 6 6 0 0 1-.6 2.3 2.8 2.8 0 0 1-3.6 1.2 5.3 5.3 0 0 1-2.1-1.8 7.8 7.8 0 0 1-1.5-4.5 5.2 5.2 0 0 1 .6-2.9zm-8.6 2.3a12.2 12.2 0 0 0 2.9 3.1 3.5 3.5 0 0 0-2 1.6zm1.3 8.5a5.4 5.4 0 0 1 .3-2.8 2.4 2.4 0 0 1 2.4-1.6 3.6 3.6 0 0 1 2 .6 6.6 6.6 0 0 1 2.7 2.8 6.4 6.4 0 0 1 1 3.3v.3a3.8 3.8 0 0 1-.3 1.8 2.5 2.5 0 0 1-3 1.5 5.2 5.2 0 0 1-2.7-1.5 8.6 8.6 0 0 1-2.4-4.4zm36.6 11.8a6.9 6.9 0 0 1-1.3 2 10.9 10.9 0 0 1-2.4 2.4 5.3 5.3 0 0 1-3 .9 10.9 10.9 0 0 1-2.6-.5l-2.7-.7a5.9 5.9 0 0 0-3.9.4 26.9 26.9 0 0 1-5.6 2.1 15.1 15.1 0 0 1-3.7.6 6.3 6.3 0 0 1-3.7-1.2 7.3 7.3 0 0 1-1.7-1.8l-1.3-2a2.6 2.6 0 0 1 .3-3.5 11.2 11.2 0 0 1 2.1-1.7l1.8-1.4a6.8 6.8 0 0 0 2.3-3c.3-.9.7-1.9 1.1-2.8a6.3 6.3 0 0 1 1.3-2 4.3 4.3 0 0 1 2.8-1.3 6.9 6.9 0 0 1 2.5.1l2.7.4a6 6 0 0 1 3.4 2.2l2.5 3.6a7.8 7.8 0 0 0 4.3 3.3l2.9.9 1.3.6a1.5 1.5 0 0 1 .8 1.6 1.9 1.9 0 0 1-.2.8zm1.3-8.8a7.2 7.2 0 0 1-2.7 2.5 3 3 0 0 1-2.3.4 2.3 2.3 0 0 1-2-1.8 5 5 0 0 1-.1-2.7 7.6 7.6 0 0 1 3.1-4.9 4.6 4.6 0 0 1 2.3-.9 2.6 2.6 0 0 1 2.6 1.5 4.1 4.1 0 0 1 .4 1.9 7.9 7.9 0 0 1-1.3 4zm1.7-6.8a3.6 3.6 0 0 0-1.9-1.5 12.2 12.2 0 0 0 2.8-3.2z"/></symbol><symbol id="bushfire-icon" viewBox="0 0 68.4 68.4"><path d="M34.2 0a34.2 34.2 0 0 0-9.1 67.2V52.5l-11.2.2 1.4-1.7a47.3 47.3 0 0 0 6.3-10.4h-5.2l2.6-3.1a47.2 47.2 0 0 0 6-10.2l.2-.3h-4.5l1.7-2a46.7 46.7 0 0 0 6.7-10.3l.4-.8a50.7 50.7 0 0 0 7.3 11.8l1 1.3h-4.6a43 43 0 0 0 2.8 5.2l-.3.4c-1.9 2.4-7.9 13.4.7 19.7h-4.1v16h1.9a34.2 34.2 0 0 0 0-68.3zm10.1 52.1l.2-.3.3.3zm2.1 1.4s-.1 0 .4-1.2h.5l-.3-.4a4.1 4.1 0 0 1 .3-.8 10.5 10.5 0 0 0-.6-8.2s.4 3.7-1.7 5.2a5.6 5.6 0 0 0-1.9-4.6 4.3 4.3 0 0 1-1-4.3l-.6 1.2a14.6 14.6 0 0 1-1.1 2.1 2.2 2.2 0 0 0-.5.8c-2 3.1-1.6 5.2.1 9.1a4.7 4.7 0 0 0 .5 1l-1.6-1c-8.6-6.3-2.6-17.3-.7-19.7l.3-.3c2.1-2.4 5.9-4.5 5.9-12.4 3.8 5.1 3.2 10.3 2.1 12.6s-1.8 5.6.5 7.7c-1.1-4.1.2-5.8.6-6.3a7.4 7.4 0 0 0 1.7-4.4s.7 4 1.3 6.1 1.5 3 2.3 5.5 0 9.4-6.5 12.3z"/></symbol></svg>