<svg id="Layer_1" data-name="Layer 1" xmlns="http://www.w3.org/2000/svg" width="32" height="32" viewBox="0 0 32 32"><title>logo-32</title><g id="Group_13" data-name="Group 13"><g id="logo"><path id="Path_55" data-name="Path 55" d="M6.2,23.5c1,2.9,3.3,2.9,6.4.1s4.6,1,2.7,2.6C10.2,28.2,6.4,28,6.2,23.5Z" fill="#3daaf4"/><path id="Path_56" data-name="Path 56" d="M6.6,24.2c1.4,3.5,7.1,3.5,9.7-1.3a2.5,2.5,0,0,1,4.4,2.2C16.3,30.9,6.9,31.8,6.6,24.2Z" fill="#4877ef"/><path id="Path_57" data-name="Path 57" d="M5.3,19.5C4.3,37.3,30.9,35.9,24,16.1a3.4,3.4,0,0,0-.6-1.2c-2.4-3.2-7.7-1.3-5.4,3.9l.4.8c5.4,8.1-5.4,11.3-9.7,7.5C5.9,24.7,5.3,19.4,5.3,19.5Z" fill="#3daaf4"/><path id="Path_58" data-name="Path 58" d="M15.6,13.7v2.2a.3.3,0,0,1-.3.3H12.5l-.2.2v2.8a.3.3,0,0,1-.3.3H9.9a.3.3,0,0,1-.3-.3V16.4c0-.1-.1-.2-.3-.2H6.5c-.1,0-.2-.1-.2-.3V13.7l.2-.2H9.3a.3.3,0,0,0,.3-.3V10.4c0-.1.1-.2.3-.2H12c.2,0,.3.1.3.2v2.8c0,.2.1.3.2.3h2.8c.2,0,.3.1.3.2Z" fill="#ee3858"/><path id="Path_59" data-name="Path 59" d="M10.9,30.8c14.7,3.8,16.6-14.2,5.8-20.2C11.7,7.7,9.6,3.1,11.3.5c.5-.9,3.9-1.2,8.8,4.1C34.9,20.1,22,36.7,10.9,30.8Z" fill="#4877ef"/></g></g></svg>