<svg id="Layer_1" data-name="Layer 1" xmlns="http://www.w3.org/2000/svg" width="64" height="64" viewBox="0 0 64 64"><title>logo-64</title><g id="Group_13" data-name="Group 13"><g id="logo"><path id="Path_55" data-name="Path 55" d="M12.5,47.1c1.8,5.6,6.5,5.6,12.6.1,4.6-3.8,9.3,2,5.5,5.2C20.3,56.4,12.8,56,12.5,47.1Z" fill="#3daaf4"/><path id="Path_56" data-name="Path 56" d="M13.3,48.4c2.6,7.1,14.2,7,19.3-2.5,3.7-5.2,10.8-.4,8.8,4.3C32.5,61.8,13.9,63.7,13.3,48.4Z" fill="#4877ef"/><path id="Path_57" data-name="Path 57" d="M10.6,39.1C8.7,74.5,61.8,71.7,48.1,32.2a10.1,10.1,0,0,0-1.2-2.3C42,23.4,31.4,27.3,36,37.7l.9,1.5c10.6,16.2-11,22.6-19.6,15.1C11.8,49.4,10.6,38.8,10.6,39.1Z" fill="#3daaf4"/><path id="Path_58" data-name="Path 58" d="M31.2,27.5v4.3a.5.5,0,0,1-.5.5H25.1a.6.6,0,0,0-.5.6v5.5a.6.6,0,0,1-.6.5H19.7a.5.5,0,0,1-.5-.5V32.9a.6.6,0,0,0-.5-.6H13.1a.5.5,0,0,1-.5-.5V27.5a.5.5,0,0,1,.5-.5h5.6a.5.5,0,0,0,.5-.5V20.9a.5.5,0,0,1,.5-.5H24a.6.6,0,0,1,.6.5v5.6a.5.5,0,0,0,.5.5h5.6a.5.5,0,0,1,.5.5Z" fill="#ee3858"/><path id="Path_59" data-name="Path 59" d="M21.9,61.5c29.3,7.7,33-28.3,11.5-40.4C23.3,15.5,19.2,6.2,22.5.9c1-1.6,7.8-2.2,17.7,8.3C69.7,40.2,44,73.5,21.9,61.5Z" fill="#4877ef"/></g></g></svg>