<svg id="Layer_1" data-name="Layer 1" xmlns="http://www.w3.org/2000/svg" width="16" height="16" viewBox="0 0 16 16"><title>logo-16</title><g id="Group_13" data-name="Group 13"><g id="logo"><path id="Path_55" data-name="Path 55" d="M3.1,11.8c.5,1.4,1.6,1.4,3.2,0s2.3.5,1.3,1.3S3.2,14,3.1,11.8Z" fill="#3daaf4"/><path id="Path_56" data-name="Path 56" d="M3.3,12.1c.7,1.8,3.6,1.8,4.9-.6a1.2,1.2,0,0,1,2.2,1.1C8.1,15.5,3.5,15.9,3.3,12.1Z" fill="#4877ef"/><path id="Path_57" data-name="Path 57" d="M2.6,9.8c-.4,8.8,12.9,8.1,9.4-1.7a1.6,1.6,0,0,0-.3-.6C10.5,5.9,7.9,6.8,9,9.4l.2.4c2.7,4.1-2.7,5.7-4.9,3.8S2.6,9.7,2.6,9.8Z" fill="#3daaf4"/><path id="Path_58" data-name="Path 58" d="M7.8,6.9V8H6.1V9.6H4.8V8.2H3.1V6.9a.2.2,0,0,1,.2-.2H4.7a.1.1,0,0,0,.1-.1V5.2H6a.1.1,0,0,1,.1.1V6.6c0,.1.1.1.2.1H7.7a.3.3,0,0,1,.1.2Z" fill="#ee3858"/><path id="Path_59" data-name="Path 59" d="M5.5,15.4c7.3,1.9,8.2-7.1,2.8-10.1C5.8,3.9,4.8,1.6,5.6.2s2-.5,4.4,2.1C17.4,10.1,11,18.4,5.5,15.4Z" fill="#4877ef"/></g></g></svg>