<svg id="Layer_1" data-name="Layer 1" xmlns="http://www.w3.org/2000/svg" width="128" height="128" viewBox="0 0 128 128"><title>logo</title><g id="Group_13" data-name="Group 13"><g id="logo"><path id="Path_55" data-name="Path 55" d="M25,94.1c3.6,11.3,12.9,11.3,25.2.4,9.1-7.6,18.7,3.8,11,10.2C40.6,112.8,25.5,112,25,94.1Z" fill="#3daaf4"/><path id="Path_56" data-name="Path 56" d="M26.5,96.8c5.4,14.1,28.5,14.1,38.7-5.1,7.4-10.4,21.5-.8,17.7,8.8C65.1,123.7,27.7,127.3,26.5,96.8Z" fill="#4877ef"/><path id="Path_57" data-name="Path 57" d="M21.1,78.1c-3.7,71,102.6,65.3,75.1-13.7a19.4,19.4,0,0,0-2.5-4.7c-9.6-12.8-30.8-5.2-21.6,15.7a13.4,13.4,0,0,0,1.7,3.1c21.2,32.3-21.9,45.2-39.2,30.1C23.6,98.9,21.1,77.6,21.1,78.1Z" fill="#3daaf4"/><path id="Path_58" data-name="Path 58" d="M62.3,55v8.7a1,1,0,0,1-1,1H50.1a1.1,1.1,0,0,0-1,1V76.9a1,1,0,0,1-1,1H39.4a1,1,0,0,1-1-1V65.7a1.1,1.1,0,0,0-1-1H26.2a1,1,0,0,1-1-1V55a1,1,0,0,1,1-1.1H37.4a1,1,0,0,0,1-1V41.8a1,1,0,0,1,1-1.1h8.7a1,1,0,0,1,1,1.1V52.9a1,1,0,0,0,1,1H61.3a1,1,0,0,1,1,1.1Z" fill="#ee3858"/><path id="Path_59" data-name="Path 59" d="M43.8,123c58.5,15.5,66-56.6,22.9-80.8C46.6,31,38.4,12.4,45,1.8c2-3.2,15.6-4.4,35.4,16.7C139.4,80.4,88,146.9,43.8,123Z" fill="#4877ef"/></g></g></svg>