<svg xmlns="http://www.w3.org/2000/svg" viewBox="0 0 320 94" width="320" height="94"><style>.st0{display:none}.st1{display:inline}.st2{fill:#fffffe}.st3{fill:#4aa241}.st4{fill:#fff}.st5{fill:#4e9d2d}.st6{fill:#231f20}.st7{fill:#808285}</style><g id="Layer_1" class="st0"><g class="st1"><path d="M281.8 13.8c-.3 1.5-.4 5.3 1.8 4.8 2.9-.6 2.5-.9 4.1-2.3 1.1-.9 3.7 1.6 0 5.7-2 2.2-2.4 2.9-1.4 4.2 1.1 1.3 4 1.9 4 6 0 3.6 4.6 1 5.8-.4 1.1-1.4 1.9-7.7 5-3.1 2.2 3.3-1.6 10.2 3 10.9 3.7.6 4.4 4.8 4.5 5.9v.3c9.6-9.2 3.2-21.1 3-22.6-.4-2.6 1-1.6 2.7-.1C307.2 9.9 293.3.8 277.2.8c-2.8 0-5.5.3-8.1.8 8.5.2 14.2 3.5 12.7 12.2m22 50.6c-2.6 1-3.7-.6-5.6 1.2-2.1 2.1 4.6 6.1-7.8 3.3-5.5-1.3-4.8 4.8-11 1.6-1.7-4.1-1.8-6.5-.3-9.1 1.7-3 2.3-2 1.3-5.3-.4-1.3 0-1.9.7-3.7.7-1.8-.2-4.3-2.7-4.1-3.4.2-3 1.7-5 3.1-1.4.9-3.7-3.8 1.2-8.1 2.7-2.3 3.3-3.1 2.4-4.9-.9-1.9-2.6-1.2-3.3-3.3-.5-1.6.3-4.7-2.1-5.5-2.7-.8-4.8 3-6.4 4.5-1.8 1.7-3.8 4.9-4.7 2.4-1.7-4.4 6.2-11 1.3-12.8-4.6-1.6-6.1-6.5-6.1-6.5-12.6 9.3-6.6 17.6-7.7 19s-3.1-1.8-4.8-.2c-1.3 1.2-2.5 8.8 5.6 13.7 3.1 1.8 4.1 2.3 3.3 3.4-.6.9-3 .1-3 2.2.1 4 6.6 2.8 7.8 7.9 1.1 4.7 21.3 7.6 21.3 7.6s.1 0 .3.1l1 .5c.3 1.2 1.5 4.1 4.3 5.6 4.6 2.4-.3 1.2.4 2.9.3.9 3.6 3.1 9.5 1.7 8.1-3.4 14.9-9.2 19.5-16.6-5.2-3.8-5.5-3-9.4-.6" class="st2"/><path d="M278.5 71c-.2 0-.3-.1-.3-.1s-20.1-2.8-21.3-7.6c-1.2-5.1-7.7-3.9-7.8-7.9 0-2 2.4-1.3 3-2.2.7-1.1-.3-1.6-3.3-3.4-8.1-4.8-6.9-12.5-5.6-13.7 1.7-1.5 3.7 1.7 4.8.2 1.1-1.5-4.9-9.7 7.7-19 0 0 1.5 4.8 6.1 6.5 4.9 1.8-3 8.4-1.3 12.8 1 2.5 2.9-.6 4.7-2.4 1.5-1.5 3.7-5.3 6.4-4.5 2.4.7 1.5 3.8 2.1 5.5.7 2.1 2.4 1.5 3.3 3.3.9 1.8.3 2.5-2.4 4.9-4.9 4.3-2.6 9-1.2 8.1 2.1-1.4 1.7-2.9 5-3.1 2.5-.1 3.4 2.3 2.7 4.1-.7 1.8-1.1 2.4-.7 3.7 1 3.3.4 2.3-1.3 5.3-1.5 2.6-1.4 5 .3 9.1 6.2 3.2 5.5-2.9 11-1.6 12.4 2.8 5.6-1.2 7.8-3.3 1.9-1.9 3-.2 5.6-1.2 3.8-2.4 4.2-3.2 9.2.7 4-6.5 6.4-14.1 6.4-22.3 0-7.1-1.8-13.8-4.9-19.7-1.8-1.6-3.2-2.6-2.8 0 .2 1.4 6.6 13.4-3 22.6v-.3c-.1-1.1-.8-5.4-4.5-5.9-4.6-.7-.8-7.7-3-10.9-3.1-4.6-3.9 1.7-5 3.1-1.1 1.4-5.8 4-5.8.4 0-4.1-2.9-4.6-4-6-1.1-1.3-.6-2 1.4-4.2 3.6-4.1 1-6.6 0-5.7-1.6 1.4-1.2 1.7-4.1 2.3-2.2.5-2.1-3.3-1.8-4.8 1.5-8.7-4.3-12-12.6-12.2-19.3 3.8-33.9 20.8-33.9 41.2 0 23.2 18.8 42 42 42 5.7 0 11.2-1.2 16.2-3.2-5.9 1.4-9.2-.9-9.5-1.7-.6-1.7 4.3-.5-.3-2.9-2.8-1.4-4-4.3-4.3-5.6l-1-.4" class="st3"/><path d="M280.8 72.3s-27.6-10.7-28.6-37.9c.1-.1 2.7 20.6 28.6 37.9M280.6.9c.8.1 6.7.9 13 4.9 2.3 2.2 5.6 7.6.5 18.6 0 0 6.5-8.8 4.9-14.2 5.5 5.5 10.1 14.2 10.3 28.1.1-.1 6.2-34.7-28.7-37.4m27.7 68.7c-2.1 1.3-5.5 4.3-11.1 2.5 0 0 2.2 1.7 5.7 1.6-4.5 2.3-9.4 2.9-17 .9 0 0 15.6 9.2 26.5-8.4-.1.1-2.8 2.6-4.1 3.4" class="st3"/><path d="M14 32.5c0 3 .6 3.9 2.7 3.9v.8H7.8v-.8c1.8 0 2.9-.5 2.9-4V13.2H7c-3.4 0-4.9 1-5.1 3.6h-.8V11h.7c.3.3.8.5 1.4.7.6.1 1.4.2 2.4.2h13.2c2.2 0 3.2-.3 4-.9h.8v5.8h-.5c-.5-2.1-1.3-3.6-5.3-3.6H14v19.3m27.1.9c0 2.4.4 3 2.5 3v.8h-8.1v-.8c2.1 0 2.6-.5 2.6-2.5v-7.7c0-2.1-1.2-3.4-3.1-3.4-1.8 0-3 .8-4.5 2.9v8.5c0 1.6.7 2.1 2.6 2.1v.8h-8.4v-.8c2.3 0 2.8-.5 2.8-3V13.1c0-2-.6-2.3-2.8-2.3V10l5-.5h.7v14.7c2-2.3 3.4-3.1 5.4-3.1 2.6 0 5.2 1.7 5.2 5.4l.1 6.9m15.8-6.5c.1-3.4-2.2-4.8-4.2-4.8-2.6 0-4.1 1.9-4.3 4.8h8.5zm-8.5.7c-.1 7 4.1 8.8 6.2 8.8 2.2 0 3.3-.7 5.5-3.3v1.1c-1.9 2.4-3.7 3.3-6.4 3.3-4.9 0-8.4-3.4-8.4-8.1 0-4.7 3.4-8.4 7.8-8.4 3.6 0 7 2.9 6.7 6.5l-11.4.1zm51.9 19h-1.2L70.9 11.9h-.1v28c0 4 1.6 5.5 5.2 5.5v1.2H63.9v-1.2c3.3 0 4.9-1 4.9-6.8V15.2c0-4.5-1.2-7-5.9-7.4V6.6h10.2l25 31.1h.1V14.4c0-5.2-1.4-6.6-4.9-6.6V6.6h12.1v1.2c-3.9 0-5.2 1.6-5.2 6.3l.1 32.5m36.8-24.8h8.6v1.8h-8.6v15.9c0 3.4 1.7 5.2 4.5 5.2 1.8 0 3.1-.7 4.6-2.4l.8.9c-2.2 2.7-4.7 4.1-7.5 4.1-4.2 0-7.1-2.9-7.1-7.2V23.6h-4.7v-1.2c3.3-1.7 6.1-4.7 8.2-8.9h1.2v8.3m36.7 20.1c0 2.7.9 3.5 4.2 3.5v1.2l-9 .5v-4.5h-.1c-2.4 3.2-5.3 4.8-8.6 4.8-4.9 0-8.1-3.7-8.1-8.3V26.4c0-2.4-.8-3.3-4.4-3.3V22l7.9-.8h1.2v17.6c0 3.5 2.2 5.6 5.6 5.6 2.4 0 4.5-1.3 6.6-4V27.1c0-3.4-.6-3.8-4.8-3.9V22l8.4-.8h1.2l-.1 20.7m15.3 0c0 2.7.8 3.5 4.1 3.5v1.2h-13v-1.2c3.8 0 4.2-1 4.2-4.7V27.2c0-3.6-.9-4-5.1-4V22l8.6-.8h1.2v5.4c4.6-4 6.8-5.4 8.4-5.4 1.4 0 3.3.8 4.5 2l-1.9 4.4c-2-1.1-4.2-2.2-5.9-2.2-1.6 0-3 .8-5.2 3l.1 13.5m31.8-11.6c.2-5.4-3.5-7.7-6.6-7.7-4.1 0-6.6 3.1-6.8 7.7h13.4zm-13.5 1.2c-.1 11.1 6.5 13.9 9.8 13.9 3.4 0 5.2-1.2 8.7-5.2V42c-3 3.8-5.9 5.3-10.2 5.3-7.7 0-13.3-5.4-13.3-12.8s5.4-13.3 12.4-13.3c5.7 0 11 4.6 10.7 10.3h-18.1zM25.9 56.4c-1.5-5.6-4.5-8.1-9.7-8.1-7.2 0-11.1 5.8-11.1 13.4 0 9 4.6 14.9 11.4 14.9 4.7 0 8.2-2.2 10.4-6.6l.8.7c-2 4.7-6.7 7.7-12.5 7.7C8 78.4.5 73.5.5 63.5.5 54 7 47 15.9 47c3.8 0 6.6 1.3 8.3 1.3.8 0 1.3-.3 1.6-.9h.8v8.9l-.7.1m13.8 3.4c-3.9 0-6.3 3.4-6.3 8.8 0 4.8 2 8.7 6.3 8.7 4.4 0 6.3-4.2 6.3-8.7 0-4.7-2-8.8-6.3-8.8zm0 18.5c-5.8 0-10.1-4.2-10.1-9.8 0-5.6 4.3-9.8 10.1-9.8s10.1 4.2 10.1 9.8c.1 5.7-4.3 9.8-10.1 9.8zm31.6-4.6c0 2.4.5 3.1 3.1 3.1v.9h-9.9v-.9c2.5 0 3.2-.6 3.2-2.3v-9.7c0-3-2.1-4.2-4.1-4.2-1.8 0-3.4 1.1-5.3 3.6v9c0 2.8.4 3.5 3.1 3.5v.9h-9.8v-.9c2.5 0 3.1-.2 3.1-3.5V62.9c0-2.2-.6-2.7-3.1-2.7v-.9l5.7-.6h.9v3.7c2.2-2.5 4.3-3.7 6.7-3.7 3.1 0 6.3 2.2 6.3 6.6l.1 8.4m15.3-9.2c-.4-3.1-2.4-4.6-4.6-4.6-1.8 0-3.1 1-3.1 2.5 0 4.7 9.7 3.4 9.7 10.3 0 3.1-2.7 5.7-5.8 5.7-2 0-3.8-1.4-4.7-1.4-.7 0-1.2.6-1.2 1.3H76V72h.9c.8 3.9 3.7 5.4 5.9 5.4 1.8 0 3.2-1.4 3.2-3.2 0-5.2-9.8-3.8-9.8-10 0-2.9 2.6-5.3 5.6-5.3 1.9 0 2.5.9 3.8.9.5 0 .8-.3 1.1-.9h.9v5.7l-1-.1m17.7 1.1c.2-4.1-2.6-5.7-5-5.7-3.1 0-4.9 2.3-5.1 5.7h10.1zm-10 .9c-.1 8.3 4.9 10.4 7.4 10.4 2.6 0 3.9-.9 6.5-3.9v1.4c-2.2 2.9-4.4 4-7.6 4-5.8 0-10-4-10-9.6s4.1-10 9.3-10c4.3 0 8.2 3.4 8 7.7H94.3zm22.7 7.8c0 2 .6 2.6 3.1 2.6v.9h-9.8v-.9c2.8 0 3.1-.7 3.1-3.5V63.3c0-2.7-.7-3-3.8-3v-.9l6.5-.6h.9v4c3.4-3 5.1-4 6.3-4 1 0 2.4.6 3.4 1.5l-1.4 3.3c-1.5-.8-3.1-1.6-4.4-1.6-1.2 0-2.2.6-3.9 2.2v10.1m22.1-1l3.6-9.3c.9-2.4.9-3.5-1.8-3.7v-.9h6.8v.9c-2.1.2-2.7.7-3.6 2.7l-5.9 15.3h-.9l-5.9-14.5c-1.3-3-1.7-3.3-3.9-3.4v-.9h8.9v.9c-1.8.2-2.2 1.1-1.4 3.2l4.1 9.7m45.3.4c0 2.4.5 3.1 3.1 3.1v.9h-9.9v-.9c2.5 0 3.2-.6 3.2-2.3v-9.7c0-3-2.1-4.2-4.1-4.2-1.8 0-3.4 1.1-5.3 3.6v9c0 2.8.4 3.5 3.1 3.5v.9h-9.8v-.9c2.5 0 3.1-.2 3.1-3.5V62.9c0-2.2-.6-2.7-3.1-2.7v-.9l5.7-.6h.9v3.7c2.2-2.5 4.3-3.7 6.7-3.7 3.1 0 6.3 2.2 6.3 6.6l.1 8.4m20.6-8.4h-.9c-.8-3.3-3.1-5.5-6.2-5.5-3.6 0-6.2 3.1-6.2 7.7 0 5.1 3.2 9.3 6.9 9.3 2.2 0 5-1.2 6.9-3.9v1.4c-2 2.7-4.8 4.1-8.1 4.1-5.5 0-9.3-3.8-9.3-9.3 0-5.7 4.3-10.2 9.5-10.2 2.8 0 4.3 1 5.2 1 .5 0 .9-.4 1.3-1h.9v6.4m13.2 8.2l3.2-9.8c.7-2.2.6-3.4-1.5-3.5v-.9h6.5v.9c-2 0-3.2 1.3-4.2 4.3l-7.4 21.8c-1.5 4.3-3.9 6.7-6.1 6.7-.8 0-1.4-.2-2.3-.8l1.2-3.2c.7.3 1.1.4 1.8.4 2.2 0 3.6-1.3 4.7-4.5l2.4-6.7L210 63c-.9-2.1-1.6-2.7-3.8-2.8v-.9h8.9v.9c-1.4.2-2 1.3-1.3 2.8l4.4 10.5m-98.6-31.9c-1 2.1-3.6 3.1-5.1 3.1-2 0-3.8-2-3.8-4.5 0-5 4.2-4.9 8.9-7v8.4zm4.7-.4V30.3c0-6.7-4.8-9.1-8.9-9.1-4.5 0-8.1 3-9.1 7.6l1.3.3c1-3.6 3.8-5.3 6.6-5.3 3.5 0 5.5 2.5 5.5 6v1.8c-4 2.4-13.7 2.1-13.7 9.1 0 3.6 3.2 6.5 7 6.5 2.6 0 4.5-1 6.9-3.7v3h8.7v-1.2c-3.6.1-4.3-.9-4.3-4.1zM157.6 74c-.7 1.6-2.7 2.3-3.8 2.3-1.5 0-2.8-1.5-2.8-3.4 0-3.7 3.1-3.7 6.6-5.2V74zm3.5-.3v-8.1c0-5-3.6-6.7-6.6-6.7-3.3 0-6 2.2-6.8 5.6l.9.3c.8-2.6 2.8-3.9 4.9-3.9 2.6 0 4.1 1.9 4.1 4.4v1.3c-3 1.8-10.1 1.6-10.1 6.8 0 2.7 2.4 4.9 5.2 4.9 1.9 0 3.3-.8 5.1-2.7v2.2h6.4v-.9c-2.6 0-3.1-.8-3.1-3.2z"/></g></g><g id="Layer_2"><path d="M289 11.3c-.2 1.2-.3 4.2 1.5 3.8 2.3-.5 2-.7 3.3-1.9.8-.7 2.9 1.3 0 4.5-1.6 1.8-1.9 2.3-1.1 3.3.9 1.1 3.2 1.5 3.2 4.7 0 2.9 3.7.8 4.6-.3.9-1.1 1.5-6.1 4-2.5 1.8 2.6-1.2 8.1 2.4 8.7 3 .4 3.5 3.8 3.6 4.7v.2c7.6-7.3 2.5-16.8 2.4-17.9-.3-2.1.8-1.3 2.1 0C309.3 8.2 298.2 1 285.5 1c-2.2 0-4.4.2-6.4.6 6.5.2 11.1 2.8 9.9 9.7zm17.5 40.2c-2 .8-2.9-.5-4.5 1-1.7 1.6 3.7 4.8-6.2 2.6-4.4-1-3.8 3.8-8.7 1.3-1.4-3.3-1.4-5.2-.2-7.2 1.4-2.4 1.8-1.6 1-4.2-.3-1 0-1.5.5-2.9s-.2-3.4-2.2-3.3c-2.7.1-2.4 1.4-4 2.5-1.1.7-3-3 .9-6.4 2.1-1.8 2.6-2.4 1.9-3.9-.7-1.5-2.1-.9-2.6-2.6-.4-1.3.2-3.8-1.6-4.3-2.1-.7-3.8 2.4-5.1 3.6-1.4 1.4-3 3.9-3.8 1.9-1.4-3.5 4.9-8.8 1-10.2-3.6-1.3-4.8-5.1-4.8-5.1-10 7.4-5.3 14-6.1 15.1-.8 1.2-2.4-1.4-3.8-.2-1 .9-2 7 4.4 10.9 2.4 1.5 3.2 1.8 2.6 2.7-.5.7-2.4.1-2.4 1.7.1 3.2 5.2 2.3 6.2 6.3.9 3.8 16.9 6 16.9 6h.2l.8.4c.2 1 1.2 3.3 3.4 4.4 3.7 1.9-.2 1 .3 2.3.3.7 2.9 2.4 7.5 1.4 6.4-2.7 11.8-7.3 15.5-13.2-3.8-3.1-4.1-2.5-7.1-.6z" class="st4"/><path d="M286.3 56.7c-.1 0-.2-.1-.2 0 0 0-16-2.3-16.9-6-.9-4-6.1-3.1-6.2-6.3 0-1.6 1.9-1 2.4-1.7.6-.9-.2-1.3-2.6-2.7-6.4-3.9-5.5-9.9-4.4-10.9 1.3-1.2 3 1.3 3.8.2.8-1.2-3.9-7.7 6.1-15.1 0 0 1.2 3.8 4.8 5.1 3.9 1.4-2.4 6.6-1 10.2.8 2 2.3-.5 3.8-1.9 1.2-1.2 2.9-4.2 5.1-3.6 1.9.6 1.2 3 1.6 4.3.5 1.7 1.9 1.2 2.6 2.6.7 1.4.2 2-1.9 3.9-3.9 3.4-2 7.1-.9 6.4 1.6-1.1 1.3-2.3 4-2.5 2-.1 2.7 1.9 2.2 3.3s-.9 1.9-.5 2.9c.8 2.6.3 1.8-1 4.2-1.2 2-1.1 4 .2 7.2 4.9 2.5 4.3-2.3 8.7-1.3 9.8 2.2 4.5-1 6.2-2.6 1.5-1.5 2.4-.2 4.5-1 3-1.9 3.3-2.5 7.3.6 3.2-5.1 5.1-11.2 5.1-17.7 0-5.7-1.4-11-3.9-15.6-1.4-1.3-2.5-2.1-2.2 0 .2 1.2 5.3 10.6-2.4 17.9v-.2c-.1-.9-.6-4.3-3.6-4.7-3.6-.5-.6-6.1-2.4-8.7-2.5-3.6-3.1 1.4-4 2.5-.9 1.1-4.6 3.2-4.6.3 0-3.3-2.3-3.7-3.2-4.7-.8-1-.5-1.6 1.1-3.3 2.9-3.2.8-5.3 0-4.5-1.3 1.1-1 1.4-3.3 1.9-1.7.4-1.7-2.6-1.5-3.8 1.2-6.9-3.4-9.5-10-9.7-15.4 3-27 16.5-27 32.8 0 18.5 15 33.4 33.4 33.4 4.6 0 8.9-.9 12.9-2.6-4.7 1.1-7.3-.7-7.5-1.4-.5-1.3 3.4-.4-.3-2.3-2.2-1.1-3.2-3.4-3.4-4.4l-.9-.5z" class="st5"/><path d="M288.2 57.8s-22-8.5-22.7-30.1c0-.1 2.1 16.3 22.7 30.1zM288 1.1c.6.1 5.4.7 10.4 3.9 1.9 1.7 4.5 6 .4 14.8 0 0 5.2-7 3.9-11.3 4.4 4.4 8 11.3 8.2 22.3 0-.1 4.8-27.6-22.9-29.7zm22 54.6c-1.7 1-4.4 3.4-8.8 2 0 0 1.7 1.3 4.5 1.3-3.6 1.8-7.4 2.3-13.6.8 0 0 12.4 7.3 21-6.7.1-.1-2.1 1.9-3.1 2.6z" class="st5"/><path d="M76.1 26.2c0 2.4.5 3.1 2.2 3.1v.6h-7.1v-.6c1.4 0 2.3-.4 2.3-3.2V10.8h-2.9c-2.7 0-3.9.8-4.1 2.9h-.6V9.1h.6c.3.2.6.4 1.1.6.5.1 1.1.2 1.9.2H80c1.7 0 2.6-.2 3.2-.7h.6v4.6h-.4c-.4-1.7-1-2.9-4.2-2.9h-3v15.3h-.1zm21.6.7c0 1.9.3 2.4 2 2.4v.6h-6.4v-.6c1.7 0 2.1-.4 2.1-2v-6.1c0-1.6-1-2.7-2.5-2.7-1.4 0-2.4.7-3.6 2.3v6.8c0 1.3.5 1.7 2.1 1.7v.6h-6.6v-.6c1.9 0 2.2-.4 2.2-2.4V10.7c0-1.6-.5-1.9-2.2-1.9v-.5l4-.4h.6v11.7c1.6-1.8 2.7-2.5 4.3-2.5 2.1 0 4.1 1.4 4.1 4.3v5.5h-.1zm12.5-5.2c.1-2.7-1.7-3.8-3.3-3.8-2.1 0-3.3 1.5-3.4 3.8h6.7zm-6.7.6c-.1 5.6 3.2 7 4.9 7 1.7 0 2.6-.6 4.4-2.6v.9c-1.5 1.9-2.9 2.7-5.1 2.7-3.9 0-6.7-2.7-6.7-6.4s2.7-6.7 6.2-6.7c2.9 0 5.5 2.3 5.4 5.2h-9.1v-.1zm41.2 15h-.9L121.4 9.8h-.1V32c0 3.2 1.3 4.4 4.2 4.4v.9h-9.6v-.9c2.7 0 3.9-.8 3.9-5.4V12.4c0-3.5-.9-5.5-4.7-5.9v-.9h8.1L143 30.3h.1V11.7c0-4.2-1.1-5.2-3.9-5.2v-.9h9.6v.9c-3.1 0-4.1 1.3-4.1 5v25.8zM174 17.7h6.8v1.4H174v12.6c0 2.7 1.4 4.1 3.5 4.1 1.4 0 2.5-.6 3.7-1.9l.6.7c-1.7 2.2-3.7 3.3-5.9 3.3-3.3 0-5.7-2.3-5.7-5.7V19.1h-3.7v-.9c2.7-1.3 4.9-3.7 6.5-7.1h.9v6.6h.1zm29.1 15.9c0 2.2.7 2.8 3.4 2.8v.9l-7.1.4v-3.6h-.1c-1.9 2.5-4.2 3.8-6.9 3.8-3.9 0-6.4-2.9-6.4-6.6v-10c0-1.9-.7-2.6-3.5-2.6v-.9l6.3-.6h.9v14c0 2.8 1.8 4.4 4.4 4.4 1.9 0 3.6-1.1 5.2-3.2V21.8c0-2.7-.4-3-3.8-3.1v-.9l6.6-.6h.9v16.4h.1zm12.2 0c0 2.2.7 2.8 3.3 2.8v.9h-10.4v-.9c3 0 3.3-.8 3.3-3.8V21.9c0-2.9-.7-3.2-4-3.2v-.9l6.9-.6h.9v4.3c3.7-3.2 5.4-4.3 6.7-4.3 1.1 0 2.6.7 3.6 1.6l-1.5 3.5c-1.6-.9-3.3-1.7-4.7-1.7-1.3 0-2.4.7-4.2 2.4v10.6h.1zm25.2-9.2c.2-4.3-2.8-6.1-5.3-6.1-3.3 0-5.2 2.4-5.4 6.1h10.7zm-10.6 1c-.1 8.8 5.2 11 7.8 11 2.7 0 4.1-.9 6.9-4.1v1.4c-2.4 3-4.7 4.2-8.1 4.2-6.2 0-10.6-4.3-10.6-10.2 0-5.9 4.3-10.6 9.9-10.6 4.5 0 8.8 3.7 8.5 8.2h-14.4v.1zM85.6 45.1c-1.2-4.5-3.6-6.4-7.7-6.4-5.7 0-8.8 4.6-8.8 10.7 0 7.1 3.7 11.8 9 11.8 3.7 0 6.5-1.7 8.3-5.2l.6.6c-1.6 3.8-5.3 6.1-9.9 6.1-5.7 0-11.7-3.9-11.7-11.8 0-7.5 5.2-13.1 12.3-13.1 3 0 5.2 1 6.6 1 .6 0 1-.3 1.3-.7h.7v7.1h-.7v-.1zm11 2.8c-3.1 0-5 2.7-5 7 0 3.8 1.6 6.9 5 6.9 3.5 0 5-3.4 5-6.9-.1-3.8-1.6-7-5-7zm0 14.7c-4.6 0-8-3.3-8-7.8s3.4-7.8 8-7.8 8 3.3 8 7.8-3.4 7.8-8 7.8zm25.1-3.7c0 1.9.4 2.5 2.5 2.5v.7h-7.8v-.7c2 0 2.5-.5 2.5-1.8v-7.7c0-2.4-1.7-3.4-3.3-3.4-1.5 0-2.7.9-4.2 2.9v7.2c0 2.2.3 2.8 2.5 2.8v.7h-7.8v-.7c1.9 0 2.4-.2 2.4-2.8v-8.3c0-1.8-.5-2.2-2.4-2.2v-.7l4.6-.5h.7V50c1.7-2 3.4-2.9 5.3-2.9 2.4 0 5 1.7 5 5.3v6.5zm12.1-7.3c-.3-2.4-1.9-3.7-3.7-3.7-1.5 0-2.4.8-2.4 2 0 3.7 7.7 2.7 7.7 8.2 0 2.4-2.1 4.5-4.6 4.5-1.6 0-3-1.1-3.7-1.1-.5 0-.9.5-1 1h-.7v-5h.7c.6 3.1 2.9 4.3 4.7 4.3 1.5 0 2.6-1.1 2.6-2.5 0-4.1-7.8-3-7.8-8 0-2.3 2-4.2 4.5-4.2 1.5 0 2 .7 3 .7.4 0 .7-.2.9-.7h.7v4.5h-.9zm14.1.9c.1-3.2-2.1-4.6-3.9-4.6-2.4 0-3.9 1.8-4.1 4.6h8zm-8 .7c-.1 6.6 3.9 8.3 5.8 8.3 2 0 3.1-.7 5.2-3.1v1.1c-1.8 2.3-3.5 3.2-6.1 3.2-4.6 0-7.9-3.2-7.9-7.6 0-4.4 3.2-7.9 7.4-7.9 3.4 0 6.6 2.7 6.3 6.1h-10.7v-.1zm18.1 6.1c0 1.6.5 2.1 2.4 2.1v.7h-7.8v-.7c2.2 0 2.5-.6 2.5-2.8v-8c0-2.2-.5-2.4-3-2.4v-.7l5.1-.5h.7v3.2c2.7-2.4 4-3.2 5-3.2.8 0 1.9.5 2.7 1.2l-1.1 2.6c-1.2-.7-2.5-1.3-3.5-1.3s-1.8.5-3.1 1.8v8h.1zm17.5-.7l2.9-7.4c.7-1.9.7-2.8-1.5-2.9v-.7h5.4v.7c-1.7.2-2.1.5-2.8 2.1l-4.7 12.2h-.7l-4.7-11.5c-1-2.4-1.4-2.7-3.1-2.7v-.7h7.1v.7c-1.4.1-1.8.9-1.1 2.5l3.2 7.7zm36.1.3c0 1.9.4 2.5 2.5 2.5v.7h-7.8v-.7c2 0 2.5-.5 2.5-1.8v-7.7c0-2.4-1.7-3.4-3.3-3.4-1.5 0-2.7.9-4.2 2.9v7.2c0 2.2.3 2.8 2.5 2.8v.7H196v-.7c2 0 2.4-.2 2.4-2.8v-8.3c0-1.8-.5-2.2-2.4-2.2v-.7l4.6-.5h.7V50c1.7-2 3.4-2.9 5.3-2.9 2.5 0 5 1.7 5 5.3v6.5zm16.3-6.7h-.7c-.6-2.7-2.5-4.4-4.9-4.4-2.9 0-4.9 2.5-4.9 6.1 0 4 2.5 7.4 5.5 7.4 1.8 0 3.9-1 5.5-3.1v1.1c-1.6 2.2-3.8 3.2-6.5 3.2-4.4 0-7.4-3-7.4-7.4 0-4.5 3.4-8.1 7.6-8.1 2.2 0 3.4.8 4.1.8.4 0 .7-.3 1-.8h.7v5.2zm10.5 6.5L241 51c.6-1.7.5-2.7-1.2-2.8v-.7h5.2v.7c-1.6 0-2.5 1-3.4 3.4l-5.8 17.3c-1.2 3.4-3.1 5.3-4.9 5.3-.6 0-1.1-.2-1.8-.6l1-2.5c.6.2.9.3 1.4.3 1.8 0 2.8-1 3.7-3.6l1.9-5.3-5.3-12.1c-.7-1.7-1.3-2.2-3-2.2v-.7h7v.7c-1.1.2-1.6 1-1 2.2l3.6 8.3zm-78.3-25.3c-.8 1.7-2.9 2.5-4 2.5-1.6 0-3-1.6-3-3.6 0-4 3.3-3.9 7-5.5v6.6zm3.7-.3v-8.7c0-5.3-3.8-7.2-7.1-7.2-3.5 0-6.4 2.4-7.3 6l1 .3c.8-2.8 3-4.2 5.2-4.2 2.8 0 4.4 2 4.4 4.8v1.4c-3.2 1.9-10.9 1.7-10.9 7.3 0 2.9 2.5 5.2 5.6 5.2 2.1 0 3.6-.8 5.5-2.9v2.4h6.9v-1c-2.7-.1-3.3-.9-3.3-3.4zm26.4 26c-.6 1.2-2.1 1.8-3 1.8-1.2 0-2.2-1.2-2.2-2.7 0-3 2.5-2.9 5.2-4.1v5zm2.8-.2v-6.4c0-3.9-2.8-5.3-5.3-5.3-2.6 0-4.8 1.8-5.4 4.5l.7.2c.6-2.1 2.2-3.1 3.9-3.1 2.1 0 3.2 1.5 3.2 3.5v1.1c-2.4 1.4-8.1 1.2-8.1 5.4 0 2.1 1.9 3.9 4.1 3.9 1.5 0 2.6-.6 4.1-2.2v1.7h5.1v-.7c-1.9-.1-2.3-.7-2.3-2.6z" class="st6"/><path d="M172.7 88.2h3.8l-1.9-5.3-1.9 5.3zm.6-8.2h2.8l5 13.4-2.6.5-1.3-3.6H172l-1.2 3.5h-2.6l5.1-13.8zm15.6 13.8l-.2-1.4c-.9.9-1.9 1.5-3.2 1.5-1.8 0-2.7-1.1-2.7-2.9v-6.9h2.4v6.3c0 .8.4 1.4 1.2 1.4.8 0 1.5-.5 2.2-1.2v-6.5h2.4v9.6h-2.1v.1zm7.8.2c-1.4 0-2.8-.4-3.7-.9l.3-2c1 .7 2.3 1.1 3.5 1.1 1 0 1.6-.4 1.6-1 0-.7-.4-1-1.9-1.3-2.3-.6-3.3-1.3-3.3-3 0-1.6 1.3-2.8 3.5-2.8 1.3 0 2.4.2 3.4.7l-.3 2c-1-.5-2.1-.9-3-.9-.9 0-1.3.3-1.3.9 0 .5.4.8 1.8 1.2 2.5.6 3.5 1.3 3.5 3.1-.3 1.8-1.6 2.9-4.1 2.9zm9.5 0c-1.9 0-3.2-.7-3.2-2.9v-4.9h-1.4v-1.9h1.4v-3l2.3-.4v3.4h2l.3 1.9h-2.3v4.5c0 .8.4 1.2 1.3 1.2.3 0 .5 0 .8-.1l.3 2c-.4.1-.9.2-1.5.2zm5.7-5.7v5.5h-2.4v-9.6h2l.3 1.9c.6-1.1 1.6-2 3.1-2.1l.4 2.4c-1.5.1-2.7.9-3.4 1.9zm9.9.7c-2.8.3-3.4 1.2-3.4 2.1 0 .7.4 1.1 1.2 1.1.8 0 1.6-.4 2.2-1V89zm.4 4.8l-.2-1.3c-.8.8-1.8 1.5-3.2 1.5-1.6 0-2.7-1-2.7-2.7 0-2.3 1.9-3.3 5.8-3.7v-.3c0-1-.6-1.4-1.6-1.4-1.1 0-2.2.3-3.2.8l-.3-1.9c1.1-.4 2.3-.8 3.8-.8 2.5 0 3.7.9 3.7 3.2v6.6h-2.1zm4.6 0v-14l2.4-.3v14.3h-2.4zm5.1 0v-9.6h2.4v9.6h-2.4zm1.2-11.2c-.8 0-1.4-.6-1.4-1.4 0-.8.6-1.4 1.4-1.4.8 0 1.4.6 1.4 1.4 0 .8-.6 1.4-1.4 1.4zm9 6.4c-2.8.3-3.4 1.2-3.4 2.1 0 .7.4 1.1 1.2 1.1.8 0 1.6-.4 2.2-1V89zm.4 4.8l-.2-1.3c-.8.8-1.8 1.5-3.2 1.5-1.6 0-2.7-1-2.7-2.7 0-2.3 1.9-3.3 5.8-3.7v-.3c0-1-.6-1.4-1.6-1.4-1.1 0-2.2.3-3.2.8l-.3-1.9c1.1-.4 2.3-.8 3.8-.8 2.5 0 3.7.9 3.7 3.2v6.6h-2.1z" class="st7"/></g></svg>